<svg height="512" viewBox="0 0 64 64" width="512" xmlns="http://www.w3.org/2000/svg"><g id="laptop-keyboard-monitor-mouse-wireless_game_controller" data-name="laptop-keyboard-monitor-mouse-wireless game controller"><path d="m57 44h-4a5 5 0 0 0 -5 5v8a5 5 0 0 0 5 5h4a5 5 0 0 0 5-5v-8a5 5 0 0 0 -5-5zm-7 5a3.009 3.009 0 0 1 3-3h1v4h-4zm10 8a3.009 3.009 0 0 1 -3 3h-4a3.009 3.009 0 0 1 -3-3v-5h10zm0-7h-4v-4h1a3.009 3.009 0 0 1 3 3z"/><path d="m47 28h-1v-21a5 5 0 0 0 -5-5h-32a5 5 0 0 0 -5 5v21h-1a1 1 0 0 0 -1 1v4a5 5 0 0 0 5 5h36a5 5 0 0 0 5-5v-4a1 1 0 0 0 -1-1zm-41-21a3.009 3.009 0 0 1 3-3h32a3.009 3.009 0 0 1 3 3v21h-10a1 1 0 0 0 -1 1v2a1 1 0 0 1 -1 1h-14a1 1 0 0 1 -1-1v-2a1 1 0 0 0 -1-1h-10zm40 26a3.009 3.009 0 0 1 -3 3h-36a3.009 3.009 0 0 1 -3-3v-3h11v1a3.009 3.009 0 0 0 3 3h14a3.009 3.009 0 0 0 3-3v-1h11z"/><path d="m6 32h2v2h-2z"/><path d="m10 32h2v2h-2z"/><path d="m38 32h2v2h-2z"/><path d="m42 32h2v2h-2z"/><path d="m45 40h-40a1 1 0 0 0 -1 1v20a1 1 0 0 0 1 1h40a1 1 0 0 0 1-1v-20a1 1 0 0 0 -1-1zm-1 20h-38v-18h38z"/><path d="m55 10a8.945 8.945 0 0 1 6.363 2.637l1.414-1.414a10.994 10.994 0 0 0 -15.554 0l1.414 1.414a8.945 8.945 0 0 1 6.363-2.637z"/><path d="m59.95 14.056a6.987 6.987 0 0 0 -9.9 0l1.42 1.408a4.988 4.988 0 0 1 7.06 0z"/><path d="m52.873 16.893 1.434 1.394a1.006 1.006 0 0 1 1.386 0l1.434-1.394a3.048 3.048 0 0 0 -4.254 0z"/><path d="m54 22h2v2h-2z"/><path d="m54 28h2v2h-2z"/><path d="m54 34h2v2h-2z"/><path d="m54 40h2v2h-2z"/><path d="m24 12h2v2h-2z"/><path d="m33.89 20.55-3.89-7.79v-1.76a3.012 3.012 0 0 0 -1.2-2.4l-3.2-2.4a.99.99 0 0 0 -1.2 0l-3.2 2.4a3.012 3.012 0 0 0 -1.2 2.4v1.76l-3.89 7.79a1 1 0 0 0 .89 1.45h5v2a.967.967 0 0 0 .17.55l2 3a.99.99 0 0 0 1.66 0l2-3a.967.967 0 0 0 .17-.55v-2h5a1 1 0 0 0 .89-1.45zm-13.89-.55h-1.38l1.38-2.76zm6 3.7-1 1.5-1-1.5v-1.7h2zm2-3.7h-6v-9a1.014 1.014 0 0 1 .4-.8l2.6-1.95 2.6 1.95a1.014 1.014 0 0 1 .4.8zm2 0v-2.76l1.38 2.76z"/><path d="m18 24h2v2h-2z"/><path d="m30 24h2v2h-2z"/><path d="m34 6h2v2h-2z"/><path d="m34 10h2v2h-2z"/><path d="m14 6h2v2h-2z"/><path d="m14 10h2v2h-2z"/><path d="m10 14h2v2h-2z"/><path d="m10 18h2v2h-2z"/><path d="m38 14h2v2h-2z"/><path d="m38 18h2v2h-2z"/><path d="m15 58a7 7 0 1 0 -7-7 7.009 7.009 0 0 0 7 7zm0-12a5 5 0 1 1 -5 5 5.006 5.006 0 0 1 5-5z"/><path d="m14 48h2v2h-2z"/><path d="m12 50h2v2h-2z"/><path d="m14 52h2v2h-2z"/><path d="m16 50h2v2h-2z"/><path d="m23 56h4v2h-4z"/><path d="m23 44h4v2h-4z"/><path d="m29 54h3v3a1 1 0 0 0 1 1h4a1 1 0 0 0 1-1v-3h3a1 1 0 0 0 1-1v-4a1 1 0 0 0 -1-1h-3v-3a1 1 0 0 0 -1-1h-4a1 1 0 0 0 -1 1v3h-3a1 1 0 0 0 -1 1v4a1 1 0 0 0 1 1zm1-4h3a1 1 0 0 0 1-1v-3h2v3a1 1 0 0 0 1 1h3v2h-3a1 1 0 0 0 -1 1v3h-2v-3a1 1 0 0 0 -1-1h-3z"/></g></svg>