<svg id="_x31__px" enable-background="new 0 0 24 24" height="512" viewBox="0 0 24 24" width="512" xmlns="http://www.w3.org/2000/svg"><path d="m22 5h-20c-1.103 0-2-.897-2-2s.897-2 2-2h20c1.103 0 2 .897 2 2s-.897 2-2 2zm-20-3c-.551 0-1 .449-1 1s.449 1 1 1h20c.551 0 1-.449 1-1s-.449-1-1-1z"/><path d="m20.5 18h-17c-.827 0-1.5-.673-1.5-1.5v-12c0-.276.224-.5.5-.5h19c.276 0 .5.224.5.5v12c0 .827-.673 1.5-1.5 1.5zm-17.5-13v11.5c0 .276.224.5.5.5h17c.276 0 .5-.224.5-.5v-11.5z"/><path d="m12 24c-1.103 0-2-.897-2-2s.897-2 2-2 2 .897 2 2-.897 2-2 2zm0-3c-.551 0-1 .449-1 1s.449 1 1 1 1-.449 1-1-.449-1-1-1z"/><path d="m12 21c-.276 0-.5-.224-.5-.5v-3c0-.276.224-.5.5-.5s.5.224.5.5v3c0 .276-.224.5-.5.5z"/><path d="m6.5 15c-.128 0-.256-.049-.354-.146-.195-.195-.195-.512 0-.707l4-4c.169-.169.433-.195.631-.063l2.619 1.746 3.713-4.642c.173-.214.487-.251.703-.078.215.173.25.487.078.703l-4 5c-.163.202-.452.249-.668.104l-2.659-1.772-3.71 3.71c-.097.096-.225.145-.353.145z"/></svg>